<?xml version="1.0" standalone="no"?>
<!DOCTYPE svg PUBLIC "-//W3C//DTD SVG 20010904//EN"
 "http://www.w3.org/TR/2001/REC-SVG-20010904/DTD/svg10.dtd">
<svg version="1.0" xmlns="http://www.w3.org/2000/svg"
 width="16.000000pt" height="16.000000pt" viewBox="0 0 16.000000 16.000000"
 preserveAspectRatio="xMidYMid meet">
<metadata>
Created by potrace 1.11, written by Peter Selinger 2001-2013
</metadata>
<g transform="translate(0.000000,16.000000) scale(0.000889,-0.000889)"
fill="#000000" stroke="none">
<path d="M9032 16240 c-126 -45 -375 -209 -642 -424 -334 -268 -710 -646 -933
-938 -138 -181 -59 -35 -3764 -6918 -674 -1251 -1240 -2299 -1259 -2328 -44
-68 -116 -114 -276 -180 -68 -27 -260 -106 -428 -175 -1166 -475 -1077 -433
-1171 -550 -108 -134 -117 -345 -20 -494 20 -32 172 -195 336 -363 163 -168
392 -403 508 -523 l209 -218 -5 -42 c-5 -40 -58 -384 -147 -947 -22 -140 -40
-264 -40 -274 0 -15 15 -5 63 40 34 32 127 118 207 190 80 72 262 238 405 368
143 130 270 239 283 242 21 6 94 -6 427 -71 66 -13 194 -38 285 -55 169 -32
401 -77 570 -110 197 -39 288 -35 396 14 63 29 165 122 201 183 33 57 53 134
53 208 0 53 -100 580 -287 1505 -48 240 -52 315 -19 406 7 22 184 357 393 744
209 388 555 1029 768 1425 2717 5040 3709 6890 3750 6992 206 515 337 1231
338 1843 1 277 -12 383 -53 440 -26 36 -68 39 -148 10z"/>
<path d="M10581 13694 c-404 -59 -769 -244 -1070 -543 -215 -213 -263 -286
-558 -836 -567 -1056 -675 -1257 -883 -1645 -122 -228 -320 -597 -440 -820
-573 -1067 -673 -1254 -813 -1515 -82 -154 -180 -336 -217 -405 -37 -69 -136
-253 -220 -410 -84 -157 -183 -341 -220 -410 -37 -69 -136 -253 -220 -410 -84
-157 -199 -370 -255 -475 -56 -104 -156 -291 -223 -415 -66 -124 -212 -396
-325 -606 -112 -209 -210 -397 -217 -418 -19 -58 -5 -120 37 -167 67 -74 -1
-69 952 -69 l860 0 16 23 c15 21 258 470 633 1172 177 333 228 416 330 538
232 279 693 536 1112 621 167 33 247 36 1116 36 786 0 872 -2 878 -16 3 -9 6
-546 6 -1195 l0 -1179 2518 0 c2165 0 2533 2 2623 15 342 48 642 188 899 418
175 156 304 326 405 532 84 171 114 267 164 525 23 118 44 225 47 238 l4 22
-2269 0 c-1899 0 -2270 2 -2280 14 -8 10 -10 281 -9 1007 l3 994 1275 6 c1355
6 1295 4 1505 53 560 131 1052 583 1239 1137 31 92 73 278 106 469 6 36 13 73
16 83 5 16 -98 17 -2064 17 -1878 0 -2070 1 -2076 16 -3 9 -6 426 -6 929 0
743 2 915 13 923 10 8 442 12 1498 15 1637 3 1525 -1 1756 66 333 97 608 271
836 529 226 257 349 525 416 907 7 39 19 102 27 142 8 40 14 79 14 88 0 13
-345 15 -3422 14 -2843 -1 -3439 -3 -3517 -15z m273 -1860 c3 -9 6 -741 6
-1628 0 -1240 -3 -1615 -12 -1624 -15 -15 -1854 -17 -1877 -3 -19 12 -28 -5
194 406 100 187 251 468 335 625 168 313 475 887 807 1505 119 220 240 434
270 477 62 86 232 258 256 258 8 0 18 -7 21 -16z"/>
</g>
</svg>
