<svg xmlns="http://www.w3.org/2000/svg" viewBox="0 0 867.69 192.5"><defs><style>.cls-1,.cls-2,.cls-5{fill:none;}.cls-1,.cls-2,.cls-3,.cls-5{stroke:#fff;stroke-miterlimit:10;}.cls-1{stroke-width:4px;}.cls-2{stroke-width:2px;}.cls-3,.cls-4{fill:#fff;}.cls-5{stroke-width:5px;}</style></defs><title>odin</title><g id="Dimensions"><line class="cls-1" x1="26.19" y1="75" x2="26.19" y2="121"/><line class="cls-2" x1="22.69" y1="74.5" x2="83.69" y2="74.5"/><line class="cls-2" x1="22.69" y1="121.5" x2="83.69" y2="121.5"/><line class="cls-1" x1="22.69" y1="74.5" x2="30.69" y2="74.5"/><line class="cls-1" x1="22.69" y1="121.5" x2="30.69" y2="121.5"/><path class="cls-3" d="M7.32,56.77,1,56.72V55.3l8.22.06v1c-3,3.84-3.69,6.74-3.94,11.71H3.54C3.79,63.28,4.78,60.25,7.32,56.77Z"/><path class="cls-3" d="M10.45,66.63l.81-1.07A4.34,4.34,0,0,0,14.47,67a2.75,2.75,0,0,0,2.82-2.9,2.56,2.56,0,0,0-2.7-2.82,3.59,3.59,0,0,0-2.19.76l-.88-.57L12,55.38l6.38,0v1.42l-4.94,0-.37,3.78a3.91,3.91,0,0,1,2-.51,3.67,3.67,0,0,1,3.93,4,4.17,4.17,0,0,1-4.33,4.29A5.59,5.59,0,0,1,10.45,66.63Z"/><path class="cls-3" d="M21.59,58.49h1.36l.13,1.4h.06a4.27,4.27,0,0,1,3-1.62,2.55,2.55,0,0,1,2.67,1.88,4.59,4.59,0,0,1,3.21-1.84c2,0,3,1.34,2.93,3.82l0,6.16H33.3l0-5.94c0-1.82-.56-2.6-1.78-2.61a3.57,3.57,0,0,0-2.45,1.48l-.05,7H27.42l0-5.94c0-1.82-.56-2.6-1.8-2.61a3.65,3.65,0,0,0-2.45,1.48l-.05,7H21.52Z"/><path class="cls-3" d="M38.17,58.6h1.36l.13,1.4h.06a4.27,4.27,0,0,1,3-1.62,2.55,2.55,0,0,1,2.67,1.88,4.59,4.59,0,0,1,3.21-1.84c2,0,3,1.34,2.93,3.82l0,6.16H49.88l0-5.94c0-1.82-.56-2.6-1.78-2.61a3.57,3.57,0,0,0-2.45,1.48l-.05,7H44l0-5.94c0-1.82-.56-2.6-1.8-2.61a3.65,3.65,0,0,0-2.45,1.48l-.05,7H38.1Z"/><line class="cls-1" x1="865.69" y1="22.7" x2="82.99" y2="22.7"/><line class="cls-2" x1="865.69" y1="19.5" x2="865.69" y2="96.5"/><line class="cls-2" x1="83.49" y1="19.2" x2="83.49" y2="74.2"/><line class="cls-1" x1="865.69" y1="19.5" x2="865.69" y2="27.5"/><line class="cls-1" x1="83.49" y1="19.2" x2="83.49" y2="27.2"/><path class="cls-3" d="M823.23,16.33l2.92,0,.07-9.4-2.32,0V5.88A7.58,7.58,0,0,0,826.62,5h1.26l-.08,11.4,2.64,0v1.36l-7.2-.05Z"/><path class="cls-3" d="M832.89,16.76a1.19,1.19,0,1,1,2.38,0,1.19,1.19,0,1,1-2.38,0Z"/><path class="cls-3" d="M837.37,16.81c3.87-3.79,6-6.08,6.06-8.14A2.26,2.26,0,0,0,841,6.16a3.76,3.76,0,0,0-2.73,1.52l-.93-.95a5,5,0,0,1,3.87-1.91A3.54,3.54,0,0,1,845,8.61c0,2.4-2.21,4.77-5.26,7.9.7-.05,1.48-.11,2.14-.1l3.7,0v1.42l-8.24-.06Z"/><path class="cls-3" d="M848.21,8.15h1.36l.13,1.4h.06a4.27,4.27,0,0,1,3-1.62,2.55,2.55,0,0,1,2.67,1.88A4.59,4.59,0,0,1,858.68,8c2,0,3,1.34,2.93,3.82l0,6.16h-1.64L860,12c0-1.82-.56-2.6-1.78-2.61a3.57,3.57,0,0,0-2.45,1.48l-.05,7H854l0-5.94c0-1.82-.56-2.6-1.8-2.61a3.65,3.65,0,0,0-2.45,1.48l-.05,7h-1.64Z"/><path class="cls-4" d="M666.76,149c0-6.85,3.9-10.69,9.66-10.69s9.66,3.87,9.66,10.69-3.9,10.88-9.66,10.88S666.76,155.82,666.76,149Zm13.7,0c0-3.78-1.54-6-4-6s-4,2.18-4,6,1.54,6.14,4,6.14S680.46,152.75,680.46,149Z"/><path class="cls-4" d="M688.65,151.47c0-5.25,3.26-8.38,6.53-8.38a4.8,4.8,0,0,1,3.71,1.6l-.19-2.3V137.2h5.5v22.27h-4.48l-.38-1.47h-.13a6.06,6.06,0,0,1-4,1.86C691.21,159.85,688.65,156.65,688.65,151.47Zm10,2.75v-5.89a3.25,3.25,0,0,0-2.18-.77c-1.15,0-2.24,1-2.24,3.84s.9,4,2.37,4A2.19,2.19,0,0,0,698.7,154.22Z"/><path class="cls-4" d="M707.6,138.73a3.09,3.09,0,1,1,3.07,2.75A2.82,2.82,0,0,1,707.6,138.73Zm.32,4.74h5.5v16h-5.5Z"/><path class="cls-4" d="M717.13,143.47h4.48l.38,1.92h.13a7.23,7.23,0,0,1,5.06-2.3c3.52,0,5,2.56,5,6.53v9.86h-5.5v-9.15c0-2-.51-2.56-1.6-2.56a3.33,3.33,0,0,0-2.43,1.22v10.5h-5.5Z"/></g><g id="Rocket"><line class="cls-5" x1="552.02" y1="75.4" x2="552.02" y2="120.56"/><line class="cls-5" x1="178.37" y1="120.56" x2="83.29" y2="120.56"/><line class="cls-5" x1="178.37" y1="74.94" x2="83.29" y2="74.94"/><path class="cls-5" d="M865.19,97.5c0,7-71,24-135,23-57-.89-550.62,0-550.62,0a11.68,11.68,0,0,0-4.57.93L100.75,153a3.82,3.82,0,0,1-5-2.06l-11.8-28.66a9.62,9.62,0,0,1-.72-3.66v-6.1l-7,2V81l7,2V76.9a9.62,9.62,0,0,1,.72-3.66l11.8-28.66a3.82,3.82,0,0,1,5-2.06L175,74.07a11.68,11.68,0,0,0,4.57.93s493.63.89,550.62,0c64-1,135,16,135,23"/><line class="cls-5" x1="83.19" y1="83" x2="83.19" y2="112"/></g></svg>