<?xml version="1.0" encoding="utf-8"?>
<!-- Generator: Adobe Illustrator 21.0.2, SVG Export Plug-In . SVG Version: 6.00 Build 0)  -->
<svg version="1.1" id="Logo" xmlns="http://www.w3.org/2000/svg" xmlns:xlink="http://www.w3.org/1999/xlink" x="0px" y="0px"
	 viewBox="0 0 180 180" style="enable-background:new 0 0 180 180;" xml:space="preserve">
<style type="text/css">
	.st0{fill:#37109F;}
	.st1{fill:#ffffff;}
</style>
<rect class="st0" width="180" height="180"/>
<path class="st1" d="M139.8,69.9h-19.9v13.4H150l-0.5,2.5c-1.1,6.1-6.5,10.5-12.6,10.5h-17v14.4H153l-0.5,2.8
	c-1.2,5.9-6.4,10.2-12.4,10.2h-35.7v-17.4H92.8c-4.8,0-10.1,2.7-12.3,7l-5.6,10.4H62.7c-0.8,0-1.5-0.7-1.5-1.5
	c0-0.3,0.1-0.5,0.2-0.7l30.6-57c2.4-4.6,7.2-7.5,12.4-7.6H153l-0.5,2.6C151.3,65.6,146,70,139.8,69.9L139.8,69.9z M90.8,94.2h13.6
	V70.6l-0.3,0.2c-1,0.9-1.8,1.9-2.4,3.1L90.8,94.2z M54.9,134l-2.3-11.5c-0.2-0.7,0-1.5,0.3-2.1l34.8-64.4c3-5.6,4-17.7,2.6-18.4
	s-11,6.7-14,12.3l-34.7,64.5c-0.4,0.6-0.9,1.2-1.6,1.4l-10.9,4.4c-1.7,0.7-2.5,2.7-1.8,4.4c0.2,0.5,0.5,0.9,0.8,1.2l7.1,7.3
	l-1.5,9.6l7.2-6.5l10,1.9c1.8,0.4,3.6-0.7,4-2.6C55,134.9,55,134.5,54.9,134L54.9,134z"/>
</svg>
