<svg xmlns="http://www.w3.org/2000/svg" viewBox="0 0 267.44 105.12"><defs><style>.cls-1{fill:#fff;}</style></defs><title>v1_alt3Asset 2</title><g id="Layer_2" data-name="Layer 2"><g id="Layer_1-2" data-name="Layer 1"><path class="cls-1" d="M110.8,30.69H89.55V43.87H121l-.47,2.5a12.87,12.87,0,0,1-12.65,10.5H89.55v14.4H124l-.54,2.78a12.63,12.63,0,0,1-12.4,10.22H75.38V66.88H63.81c-4.77,0-10.13,2.7-12.26,7L46.32,84.28H33.72a1.48,1.48,0,0,1-1.31-2.19L63,25.11a14.08,14.08,0,0,1,12.41-7.42H124l-.45,2.39A13,13,0,0,1,110.8,30.69ZM62,54.82H75.38V31.22l-.26.22a9.84,9.84,0,0,0-2.43,3.09Z"/><path class="cls-1" d="M163,45a33.53,33.53,0,0,1,8.14,2.34,15,15,0,0,1,5.24,3.79,13.65,13.65,0,0,1,2.81,5.42A28.07,28.07,0,0,1,180,63.8v1.4a25.39,25.39,0,0,1-1.31,8.65,13.09,13.09,0,0,1-4.4,6,20.39,20.39,0,0,1-8.14,3.51,58.42,58.42,0,0,1-12.44,1.12h-9.68q-2.85,0-6.45,0l-8.18-.14.36-2a12.75,12.75,0,0,1,12.61-10.4h11.53a32.59,32.59,0,0,0,5.1-.33,8.41,8.41,0,0,0,3.18-1.08,3.74,3.74,0,0,0,1.59-2,10.39,10.39,0,0,0,.42-3.23,16.28,16.28,0,0,0-.23-3,3.79,3.79,0,0,0-1-2A6.05,6.05,0,0,0,160.82,59a19.64,19.64,0,0,0-3.6-.89l-9.82-1.68A41.67,41.67,0,0,1,138.52,54,15,15,0,0,1,133,50.33,12.12,12.12,0,0,1,130.28,45a30.11,30.11,0,0,1-.84-7.17v-1.5a22.49,22.49,0,0,1,1.4-8,13.77,13.77,0,0,1,4.3-5.89A20.46,20.46,0,0,1,143,18.76,46.92,46.92,0,0,1,154.7,17.5h10.15c1.84,0,5.83,0,8,0l7.34.14-.37,2A12.69,12.69,0,0,1,167.24,30H154.42a27.87,27.87,0,0,0-4.68.33,7.47,7.47,0,0,0-2.9,1,3.73,3.73,0,0,0-1.45,1.92,9.23,9.23,0,0,0-.42,3A13.44,13.44,0,0,0,145.2,39a3.8,3.8,0,0,0,.93,1.87,5.41,5.41,0,0,0,2,1.26,18.21,18.21,0,0,0,3.46.89Z"/><path class="cls-1" d="M203.93,33V84.28h0A15.43,15.43,0,0,1,188.5,68.85V17.69h.07A15.36,15.36,0,0,1,203.93,33Z"/><path class="cls-1" d="M264.44,40.6q0,7.3-3,11.64a17.43,17.43,0,0,1-8.57,6.31.24.24,0,0,0-.13.35l14.7,25a.24.24,0,0,1-.21.37H250.84a.24.24,0,0,1-.21-.13L240.51,65.56a8.94,8.94,0,0,0-7.85-4.67h-5a.24.24,0,0,0-.24.24V84a.24.24,0,0,1-.24.24H212.59a.24.24,0,0,1-.24-.24V32.45a14.77,14.77,0,0,1,14.77-14.77h12.07a50.89,50.89,0,0,1,11.5,1.12,19.46,19.46,0,0,1,7.81,3.55A14.33,14.33,0,0,1,263,28.68a27,27,0,0,1,1.45,9.4ZM249.29,39a14.32,14.32,0,0,0-.56-4.35A5.61,5.61,0,0,0,247,31.95a7.14,7.14,0,0,0-3.23-1.36,28.15,28.15,0,0,0-5-.37h-6.38a4.94,4.94,0,0,0-4.94,4.94V48.49a.24.24,0,0,0,.24.24h11.07a28,28,0,0,0,5-.37A6.82,6.82,0,0,0,247,47a5.9,5.9,0,0,0,1.78-2.76,14.68,14.68,0,0,0,.56-4.44Z"/><path class="cls-1" d="M27.92,96.59,25.64,85.08A3.16,3.16,0,0,1,25.95,83L60.67,18.49c3-5.62,4-17.67,2.56-18.43s-11,6.66-14,12.28L14.53,76.81a3.16,3.16,0,0,1-1.6,1.43L2.06,82.66a3.35,3.35,0,0,0-1,5.53l7.11,7.3-1.5,9.62,7.21-6.54,10,1.92A3.35,3.35,0,0,0,27.92,96.59Z"/></g></g></svg>