<svg id="Layer_1" data-name="Layer 1" xmlns="http://www.w3.org/2000/svg" viewBox="0 0 1000 200"><defs><style>.cls-1{opacity:0.5;}.cls-2{fill:none;stroke:#fff;stroke-miterlimit:10;stroke-width:5px;}.cls-3{fill:#fff;}</style></defs><title>Artboard 1</title><g class="cls-1"><line class="cls-2" y1="25" x2="1000" y2="25"/></g><g class="cls-1"><line class="cls-2" y1="197.5" x2="1000" y2="197.5"/></g><path class="cls-3" d="M221,156c22.1,0,42.78,6.59,58.22,18.55C293.91,185.93,302,200.83,302,216.5s-8.09,30.57-22.78,41.95C263.78,270.41,243.1,277,221,277s-42.78-6.59-58.22-18.55C148.09,247.07,140,232.17,140,216.5s8.09-30.57,22.78-41.95C178.22,162.59,198.9,156,221,156m0-10c-50.26,0-91,31.56-91,70.5S170.74,287,221,287s91-31.56,91-70.5S271.26,146,221,146Z"/><path class="cls-3" d="M359.5,89a408.53,408.53,0,0,1,93.65,10.54c28.45,6.71,53.95,16.29,75.78,28.47,21.42,12,38.16,25.75,49.73,41S596,200.17,596,216.5s-5.83,32.31-17.34,47.48S550.35,293,528.93,305c-21.83,12.18-47.33,21.75-75.78,28.47A408.53,408.53,0,0,1,359.5,344a408.53,408.53,0,0,1-93.65-10.54c-28.45-6.71-53.95-16.29-75.78-28.47-21.42-12-38.16-25.75-49.73-41S123,232.83,123,216.5s5.83-32.31,17.34-47.48,28.31-29.06,49.73-41c21.83-12.18,47.33-21.75,75.78-28.47A408.53,408.53,0,0,1,359.5,89m0-10C223.36,79,113,140.56,113,216.5S223.36,354,359.5,354,606,292.44,606,216.5,495.64,79,359.5,79Z"/><path class="cls-3" d="M499.5,12c53.74,0,105.84,5.59,154.87,16.61,47.18,10.61,89.49,25.76,125.76,45C816,92.71,844,114.77,863.47,139.23,883.06,163.86,893,189.86,893,216.5s-9.94,52.64-29.53,77.27C844,318.23,816,340.29,780.12,359.34c-36.27,19.28-78.58,34.43-125.76,45-49,11-101.13,16.61-154.87,16.61s-105.84-5.59-154.87-16.61c-47.18-10.61-89.49-25.76-125.76-45C183,340.29,155,318.23,135.53,293.77,115.94,269.14,106,243.14,106,216.5s9.94-52.64,29.53-77.27C155,114.77,183,92.71,218.88,73.66c36.27-19.28,78.58-34.43,125.76-45C393.66,17.59,445.76,12,499.5,12m0-10C276.65,2,96,98,96,216.5S276.65,431,499.5,431,903,335,903,216.5,722.35,2,499.5,2Z"/></svg>